<?xml version="1.0" standalone="no"?>
<!DOCTYPE svg PUBLIC "-//W3C//DTD SVG 20010904//EN"
 "http://www.w3.org/TR/2001/REC-SVG-20010904/DTD/svg10.dtd">
<svg version="1.0" xmlns="http://www.w3.org/2000/svg"
 width="260.000000pt" height="260.000000pt" viewBox="0 0 260.000000 260.000000"
 preserveAspectRatio="xMidYMid meet">
<metadata>
Created by potrace 1.14, written by Peter Selinger 2001-2017
</metadata>
<g transform="translate(0.000000,260.000000) scale(0.100000,-0.100000)"
fill="#000000" stroke="none">
<path d="M478 1790 c-11 -4 -13 -93 -12 -480 1 -261 2 -481 3 -487 2 -18 211
-18 212 0 0 6 1 86 2 176 l2 164 150 2 c200 3 253 18 333 97 111 110 105 349
-12 450 -31 27 -106 64 -146 73 -39 9 -511 14 -532 5z m487 -182 c52 -28 68
-53 71 -116 2 -44 -2 -67 -16 -90 -33 -54 -69 -65 -210 -66 l-125 -1 -2 147
-2 146 127 -2 c92 -2 135 -7 157 -18z"/>
<path d="M1590 1780 c-4 -8 -54 -136 -109 -285 -56 -148 -106 -279 -111 -290
-5 -11 -32 -83 -61 -160 -28 -77 -60 -162 -70 -188 l-19 -48 111 3 111 3 37
105 37 105 185 3 185 2 18 -57 c10 -32 27 -82 38 -110 l19 -53 111 0 c100 0
110 2 105 18 -8 31 -348 935 -357 951 -12 23 -218 24 -230 1z m178 -412 l61
-178 -124 0 c-69 0 -125 4 -125 8 0 17 121 355 125 350 1 -2 30 -83 63 -180z"/>
</g>
</svg>
